<?xml version="1.0" encoding="UTF-8" standalone="no"?>
<svg
   xmlns:dc="http://purl.org/dc/elements/1.1/"
   xmlns:cc="http://creativecommons.org/ns#"
   xmlns:rdf="http://www.w3.org/1999/02/22-rdf-syntax-ns#"
   xmlns:svg="http://www.w3.org/2000/svg"
   xmlns="http://www.w3.org/2000/svg"
   xmlns:sodipodi="http://sodipodi.sourceforge.net/DTD/sodipodi-0.dtd"
   xmlns:inkscape="http://www.inkscape.org/namespaces/inkscape"
   width="331.76532mm"
   height="93.815155mm"
   viewBox="0 0 331.76532 93.815156"
   version="1.1"
   id="svg8"
   inkscape:version="1.0.2 (e86c870879, 2021-01-15)"
   sodipodi:docname="cwp.svg">
  <defs
     id="defs2">
    <marker
       inkscape:stockid="DotS"
       orient="auto"
       refY="0"
       refX="0"
       id="DotS"
       style="overflow:visible">
      <path
         id="path3702"
         d="m -2.5,-1 c 0,2.76 -2.24,5 -5,5 -2.76,0 -5,-2.24 -5,-5 0,-2.76 2.24,-5 5,-5 2.76,0 5,2.24 5,5 z"
         style="fill-rule:evenodd;stroke:#000000;stroke-width:1pt;marker-start:none;marker-end:none"
         transform="matrix(0.2,0,0,0.2,1.48,0.2)" />
    </marker>
    <marker
       inkscape:stockid="Arrow1Lstart"
       orient="auto"
       refY="0"
       refX="0"
       id="Arrow1Lstart"
       style="overflow:visible">
      <path
         id="path3634"
         d="M 0,0 5,-5 -12.5,0 5,5 Z"
         style="fill-rule:evenodd;stroke:#000000;stroke-width:1pt;marker-start:none"
         transform="matrix(0.8,0,0,0.8,10,0)" />
    </marker>
    <filter
       id="filter6368"
       inkscape:label="Desaturate"
       x="-0.0012869207"
       y="-0.0013544655"
       width="1.0026444"
       height="1.0027089"
       inkscape:menu="Color"
       inkscape:menu-tooltip="Render in shades of gray by reducing saturation to zero"
       color-interpolation-filters="sRGB">
      <feColorMatrix
         id="feColorMatrix6370"
         type="saturate"
         values="0" />
    </filter>
  </defs>
  <sodipodi:namedview
     id="base"
     pagecolor="#ffffff"
     bordercolor="#666666"
     borderopacity="1.0"
     inkscape:pageopacity="0.0"
     inkscape:pageshadow="2"
     inkscape:zoom="0.65512212"
     inkscape:cx="572.68576"
     inkscape:cy="169.72448"
     inkscape:document-units="mm"
     inkscape:current-layer="layer1-6"
     inkscape:document-rotation="0"
     showgrid="false"
     inkscape:snap-bbox="true"
     inkscape:bbox-paths="true"
     inkscape:bbox-nodes="true"
     inkscape:snap-bbox-edge-midpoints="true"
     inkscape:snap-bbox-midpoints="true"
     inkscape:window-width="1920"
     inkscape:window-height="1004"
     inkscape:window-x="0"
     inkscape:window-y="0"
     inkscape:window-maximized="1" />
  <metadata
     id="metadata5">
    <rdf:RDF>
      <cc:Work
         rdf:about="">
        <dc:format>image/svg+xml</dc:format>
        <dc:type
           rdf:resource="http://purl.org/dc/dcmitype/StillImage" />
        <dc:title></dc:title>
      </cc:Work>
    </rdf:RDF>
  </metadata>
  <g
     inkscape:label="Layer 1"
     inkscape:groupmode="layer"
     id="layer1"
     transform="translate(436.80775,-124.37068)">
    <g
       inkscape:label="Layer 1"
       id="layer1-6"
       transform="translate(5.6976815,-139.01848)">
      <rect
         style="fill:#fffff9;fill-opacity:1;stroke:#e3f6fc;stroke-width:0;stroke-linecap:round;stroke-linejoin:round"
         id="rect1672"
         width="331.76532"
         height="93.815155"
         x="-442.50543"
         y="263.38916"
         ry="46.907578" />
      <text
         xml:space="preserve"
         style="font-size:10.5833px;line-height:1.25;font-family:'Neue Haas Grotesk Display Pro';-inkscape-font-specification:'Neue Haas Grotesk Display Pro';stroke-width:0.264583"
         x="-287.49234"
         y="271.91995"
         id="text1194"><tspan
           sodipodi:role="line"
           id="tspan1192"
           x="-287.49234"
           y="271.91995"
           style="stroke-width:0.264583" /></text>
      <g
         id="g1699"
         transform="translate(-0.10912243,-1.4989287)">
        <circle
           style="fill:#d40055;fill-opacity:1;stroke:#e3f6fc;stroke-width:0;stroke-linecap:round;stroke-linejoin:round"
           id="path1190"
           cx="-396.03311"
           cy="311.79565"
           r="35.288303" />
        <path
           style="fill:#ffffff;fill-opacity:1;stroke-width:0.171025"
           d="m -398.35632,334.47889 c -6.65093,-0.64438 -13.03654,-4.53853 -16.77075,-10.22735 -1.76952,-2.69574 -2.80181,-5.24615 -3.43826,-8.49472 -0.39415,-2.01179 -0.39609,-5.74344 -0.004,-7.90665 1.42629,-7.87162 6.77172,-14.42165 14.10489,-17.28353 3.0665,-1.19674 5.13109,-1.58848 8.43096,-1.59973 3.05083,-0.0104 4.66468,0.22093 7.11795,1.02029 4.21559,1.37359 8.25021,4.20544 10.92308,7.66678 2.56055,3.31586 3.82414,6.07065 4.47752,9.76151 0.40844,2.30731 0.41562,7.15936 0.0133,8.94641 -1.02095,4.53416 -2.9604,8.04894 -6.30451,11.42548 -3.9725,4.01099 -8.60972,6.20884 -14.11766,6.69115 -2.22454,0.1948 -2.42542,0.19481 -4.43231,2.7e-4 z m -4.43897,-7.27109 c 1.03565,-0.5162 2.53778,-1.28243 3.33805,-1.70274 2.12108,-1.11402 3.63312,-1.30017 5.90578,-0.72706 0.37659,0.095 1.84021,0.62021 3.25245,1.16717 1.41226,0.54698 3.19598,1.16524 3.96384,1.37391 l 1.3961,0.3794 1.02291,-0.78567 c 2.14021,-1.64383 4.35682,-4.50027 5.67175,-7.30889 0.76381,-1.63145 1.32243,-3.54819 1.15842,-3.97477 -0.10143,-0.26385 -0.17292,-0.2568 -0.84174,0.0831 -0.402,0.20428 -1.29276,0.74946 -1.97947,1.21153 -2.83784,1.90942 -5.07314,2.59016 -7.27028,2.21409 -0.66065,-0.11309 -2.06778,-0.54773 -3.12695,-0.96588 -4.06018,-1.60288 -5.01266,-1.53552 -9.66995,0.68406 -3.01777,1.43821 -4.5521,1.87576 -6.04679,1.72438 -0.55026,-0.0557 -2.16007,-0.49292 -3.57734,-0.97156 -2.75588,-0.93067 -4.40983,-1.2389 -4.40836,-0.82149 8.8e-4,0.33749 1.06984,2.37287 1.99779,3.80503 1.31256,2.02575 4.25614,4.83995 5.74237,5.48999 0.77574,0.33927 1.30209,0.20667 3.47142,-0.87459 z m -0.96525,-13.99172 c 0.35233,-0.0433 1.48044,-0.66239 2.91009,-1.59675 3.54872,-2.31932 3.95389,-2.50061 5.58717,-2.50004 1.65949,2.7e-4 2.33825,0.23473 5.13545,1.77145 l 2.05418,1.12853 1.79743,-8.8e-4 c 2.11374,-8.8e-4 2.55634,-0.18101 5.377,-2.18196 0.93312,-0.66195 2.15222,-1.4308 2.7091,-1.70856 0.55688,-0.27777 1.04904,-0.60004 1.09368,-0.71615 0.18514,-0.48159 -1.96995,-5.51724 -2.79631,-6.53394 l -0.30652,-0.37713 -1.36945,1.19598 c -0.82905,0.72402 -1.93857,1.4797 -2.8116,1.91494 -1.43376,0.71478 -1.45317,0.71896 -3.33804,0.71896 h -1.89591 l -2.15201,-0.97671 c -4.48437,-2.03529 -6.06427,-2.0028 -9.91633,0.20401 -2.12892,1.21963 -3.09321,1.54161 -4.61701,1.54161 -1.45739,0 -2.75774,-0.34295 -4.88616,-1.28867 -0.94291,-0.41896 -1.80795,-0.76174 -1.92231,-0.76174 -0.44055,0 -1.45272,2.70446 -1.99756,5.33739 -0.42349,2.04649 -0.4741,1.94447 1.03219,2.08071 1.49702,0.13541 2.68258,0.54624 5.16221,1.78883 2.38716,1.19627 2.72484,1.25924 5.15071,0.96046 z m 1.05085,-14.73978 c 0.80026,-0.39051 2.00473,-1.02317 2.67659,-1.40589 1.555,-0.8858 3.2425,-1.26783 4.52651,-1.02476 0.49671,0.094 1.52497,0.44736 2.28502,0.7852 3.30676,1.46982 3.88144,1.64971 4.98723,1.56115 0.57066,-0.0456 1.41801,-0.25082 1.88299,-0.45585 0.80664,-0.35565 1.95813,-1.28964 1.95813,-1.58827 0,-0.21972 -2.18352,-1.57357 -3.49036,-2.16416 -3.03549,-1.3718 -5.48247,-1.82332 -9.07043,-1.67365 -3.22383,0.13445 -4.69586,0.5204 -7.67766,2.01288 -2.36662,1.18458 -5.09649,3.10589 -5.09649,3.58698 0,0.15697 1.1694,0.79617 1.88301,1.02925 0.23536,0.0768 1.15975,0.11894 2.05418,0.0935 1.51425,-0.0431 1.72642,-0.0951 3.08128,-0.75634 z"
           id="path32493"
           sodipodi:nodetypes="csscssssscssccssssscsssssssssscssscscsccsssscssscssssssssccssssssssssssss"
           inkscape:export-filename="C:\Users\lawre\downloads\icon.png"
           inkscape:export-xdpi="86.699997"
           inkscape:export-ydpi="86.699997" />
        <g
           aria-label="Royal College
of Elmwycke"
           id="text1218"
           style="font-style:normal;font-variant:normal;font-weight:bold;font-stretch:normal;font-size:32.2498px;line-height:1.25;font-family:'Albertus Nova';-inkscape-font-specification:'Albertus Nova Bold';text-align:start;text-anchor:start;fill:#d40055;fill-opacity:1;stroke-width:0.377927">
          <path
             d="m -328.58636,303.11401 v 0.129 h -4.12798 q -1.41899,-0.54825 -3.64422,-3.16048 -2.83799,-3.48298 -6.51446,-8.96544 v 4.54722 q 0,4.28922 1.12874,7.5787 h -6.99821 q 1.12875,-3.28948 1.12875,-7.5787 v -11.25518 q 0,-4.28923 -1.12875,-7.57871 h 6.48221 q 4.90197,0 7.67546,2.19299 2.77348,2.16074 2.77348,5.48247 0,4.57947 -4.80522,7.0627 1.67699,2.96699 3.35398,5.35347 1.45124,2.03174 4.67622,6.19196 z m -8.0947,-18.05989 q 0,-2.38648 -1.77374,-3.86997 -1.77374,-1.48349 -4.41822,-1.48349 v 10.93268 q 2.99923,-0.67725 4.57947,-2.16074 1.61249,-1.48349 1.61249,-3.41848 z"
             style="font-style:normal;font-variant:normal;font-weight:bold;font-stretch:normal;font-family:'Albertus Nova';-inkscape-font-specification:'Albertus Nova Bold';text-align:start;text-anchor:start;fill:#d40055;fill-opacity:1;stroke-width:0.377927"
             id="path1627" />
          <path
             d="m -310.36527,293.89057 q 0.0645,3.93447 -2.80573,6.80471 -2.87024,2.83798 -6.51446,2.77348 -3.70873,0 -6.22422,-2.32199 -2.48323,-2.35423 -2.48323,-6.57896 -0.0968,-4.19247 2.74123,-7.09495 2.87023,-2.93473 6.44996,-2.87023 4.03123,0 6.41771,2.51548 2.41874,2.48324 2.41874,6.77246 z m -12.93217,-0.29025 q 0,2.87023 1.16099,4.67622 1.16099,1.77374 3.12823,2.03174 1.67699,-0.258 2.61224,-1.87049 0.96749,-1.61249 0.96749,-4.22472 0,-2.77349 -1.22549,-4.61172 -1.2255,-1.83824 -3.06373,-1.83824 -1.61249,0 -2.61224,1.54799 -0.96749,1.54799 -0.96749,4.28922 z"
             style="font-style:normal;font-variant:normal;font-weight:bold;font-stretch:normal;font-family:'Albertus Nova';-inkscape-font-specification:'Albertus Nova Bold';text-align:start;text-anchor:start;fill:#d40055;fill-opacity:1;stroke-width:0.377927"
             id="path1629" />
          <path
             d="m -297.91687,284.89287 h 6.06297 v 0.0967 q -1.2255,1.74149 -2.51549,5.35347 l -4.90197,13.60942 q -1.67699,4.67622 -3.22498,5.67596 h -5.19222 v -0.129 q 2.93473,-2.41873 4.77297,-6.9982 l -4.51497,-12.41618 q -1.38674,-3.64423 -2.48323,-5.09547 v -0.0967 h 6.8692 q -0.35474,0.87075 -0.35474,1.80599 0,1.06425 0.45149,2.41874 l 2.45099,6.83696 2.32198,-6.41771 q 0.54825,-1.58024 0.54825,-2.93474 0,-0.83849 -0.29025,-1.70924 z"
             style="font-style:normal;font-variant:normal;font-weight:bold;font-stretch:normal;font-family:'Albertus Nova';-inkscape-font-specification:'Albertus Nova Bold';text-align:start;text-anchor:start;fill:#d40055;fill-opacity:1;stroke-width:0.377927"
             id="path1631" />
          <path
             d="m -278.53475,290.43984 v 7.6432 q 0,2.87024 1.032,5.15997 h -5.61147 v -2.09624 q -1.35449,0.774 -2.90248,2.16074 -0.0967,0.0323 -0.645,0.0323 -2.57998,0 -4.03122,-1.22549 -1.45124,-1.22549 -1.45124,-3.35398 0,-1.58024 0.99974,-2.74123 1.03199,-1.161 3.51523,-2.32199 1.67699,-0.80624 4.51497,-1.96724 v -0.41925 q 0,-1.45124 -0.80624,-2.25748 -0.80625,-0.80625 -2.25749,-0.80625 -2.22524,0 -4.41822,1.38675 l -0.0645,-0.0645 1.35449,-4.22473 q 1.93499,-0.74174 4.38597,-0.74174 3.12823,0 4.74072,1.51574 1.64474,1.48349 1.64474,4.32147 z m -4.57947,4.70847 h -3.74098 q -0.45149,1.09649 -0.45149,2.16074 0,1.45124 0.77399,2.16073 0.80625,0.67725 2.54774,0.67725 0.51599,0 0.87074,-0.0967 z"
             style="font-style:normal;font-variant:normal;font-weight:bold;font-stretch:normal;font-family:'Albertus Nova';-inkscape-font-specification:'Albertus Nova Bold';text-align:start;text-anchor:start;fill:#d40055;fill-opacity:1;stroke-width:0.377927"
             id="path1633" />
          <path
             d="m -273.92307,298.08304 v -14.38341 q 0,-3.64423 -0.93524,-5.90171 l 6.32096,-1.19324 q -0.80625,3.22498 -0.80625,8.61069 v 12.86767 q 0,2.70899 0.93525,5.15997 h -6.44996 q 0.93524,-2.45098 0.93524,-5.15997 z"
             style="font-style:normal;font-variant:normal;font-weight:bold;font-stretch:normal;font-family:'Albertus Nova';-inkscape-font-specification:'Albertus Nova Bold';text-align:start;text-anchor:start;fill:#d40055;fill-opacity:1;stroke-width:0.377927"
             id="path1635" />
          <path
             d="m -257.66924,290.47209 q -0.0645,-4.09572 1.96723,-7.3207 2.06399,-3.25723 5.54697,-4.96647 3.48298,-1.70924 7.6432,-1.67699 3.25723,0 6.19196,0.90299 v 4.80522 l -0.0967,0.0322 q -3.12824,-2.03174 -7.06271,-2.03174 -3.86998,0 -6.41771,2.77349 -2.54774,2.77348 -2.54774,6.9982 -0.0645,4.06348 2.45099,6.90146 2.51548,2.80573 6.19196,2.74123 2.41874,0 4.54722,-0.77399 2.12849,-0.80625 3.51523,-2.19299 l 0.0968,0.0323 -0.258,4.86972 q -3.54748,1.99949 -8.4172,1.99949 -5.80496,0.0645 -9.61044,-3.70873 -3.80547,-3.80547 -3.74097,-9.38469 z"
             style="font-style:normal;font-variant:normal;font-weight:bold;font-stretch:normal;font-family:'Albertus Nova';-inkscape-font-specification:'Albertus Nova Bold';text-align:start;text-anchor:start;fill:#d40055;fill-opacity:1;stroke-width:0.377927"
             id="path1637" />
          <path
             d="m -215.7123,293.89057 q 0.0645,3.93447 -2.80574,6.80471 -2.87023,2.83798 -6.51446,2.77348 -3.70872,0 -6.22421,-2.32199 -2.48323,-2.35423 -2.48323,-6.57896 -0.0968,-4.19247 2.74123,-7.09495 2.87023,-2.93473 6.44996,-2.87023 4.03123,0 6.41771,2.51548 2.41874,2.48324 2.41874,6.77246 z m -12.93217,-0.29025 q 0,2.87023 1.16099,4.67622 1.16099,1.77374 3.12823,2.03174 1.67699,-0.258 2.61223,-1.87049 0.9675,-1.61249 0.9675,-4.22472 0,-2.77349 -1.22549,-4.61172 -1.2255,-1.83824 -3.06373,-1.83824 -1.6125,0 -2.61224,1.54799 -0.96749,1.54799 -0.96749,4.28922 z"
             style="font-style:normal;font-variant:normal;font-weight:bold;font-stretch:normal;font-family:'Albertus Nova';-inkscape-font-specification:'Albertus Nova Bold';text-align:start;text-anchor:start;fill:#d40055;fill-opacity:1;stroke-width:0.377927"
             id="path1639" />
          <path
             d="m -212.29384,298.08304 v -14.38341 q 0,-3.64423 -0.93525,-5.90171 l 6.32096,-1.19324 q -0.80624,3.22498 -0.80624,8.61069 v 12.86767 q 0,2.70899 0.93524,5.15997 h -6.44996 q 0.93525,-2.45098 0.93525,-5.15997 z"
             style="font-style:normal;font-variant:normal;font-weight:bold;font-stretch:normal;font-family:'Albertus Nova';-inkscape-font-specification:'Albertus Nova Bold';text-align:start;text-anchor:start;fill:#d40055;fill-opacity:1;stroke-width:0.377927"
             id="path1641" />
          <path
             d="m -202.81244,298.08304 v -14.38341 q 0,-3.64423 -0.93525,-5.90171 l 6.32096,-1.19324 q -0.80624,3.22498 -0.80624,8.61069 v 12.86767 q 0,2.70899 0.93524,5.15997 h -6.44996 q 0.93525,-2.45098 0.93525,-5.15997 z"
             style="font-style:normal;font-variant:normal;font-weight:bold;font-stretch:normal;font-family:'Albertus Nova';-inkscape-font-specification:'Albertus Nova Bold';text-align:start;text-anchor:start;fill:#d40055;fill-opacity:1;stroke-width:0.377927"
             id="path1643" />
          <path
             d="m -180.14087,294.30982 -9.83619,0.25799 q 0.51599,4.96647 4.83747,4.96647 2.03173,0 4.80522,-1.70924 l 0.0645,0.0645 -1.32225,4.67623 q -1.99948,0.90299 -4.45047,0.90299 -4.16022,0 -6.48221,-2.35424 -2.28973,-2.35423 -2.28973,-6.83695 0,-4.48273 2.35423,-7.06271 2.35424,-2.61223 5.90172,-2.61223 3.16048,0 4.83747,1.96723 1.67699,1.96724 1.67699,5.48247 0,1.38674 -0.0968,2.25749 z m -9.80394,-2.32199 h 6.32096 q 0,-4.38597 -3.09598,-4.38597 -2.87024,0 -3.22498,4.38597 z"
             style="font-style:normal;font-variant:normal;font-weight:bold;font-stretch:normal;font-family:'Albertus Nova';-inkscape-font-specification:'Albertus Nova Bold';text-align:start;text-anchor:start;fill:#d40055;fill-opacity:1;stroke-width:0.377927"
             id="path1645" />
          <path
             d="m -161.3715,284.44138 v 4.12797 q -1.51574,-0.258 -3.25723,-0.87074 1.28999,1.58024 1.28999,3.28948 0,2.61223 -2.06399,4.28922 -2.06399,1.64474 -5.35347,1.64474 -1.03199,0 -1.90273,-0.0967 -0.645,0.7095 -0.645,1.32224 0,0.903 1.54799,0.903 l 3.22498,-0.0323 q 0.67725,-0.0322 2.83798,-0.0322 1.51574,0.258 2.70899,1.54799 1.19324,1.25774 1.19324,2.83798 0,2.06399 -2.41874,3.99898 -3.25723,2.51548 -7.3852,2.51548 -3.03148,0 -4.74072,-1.03199 -1.70924,-0.99975 -1.70924,-2.77349 0,-0.67724 0.29025,-1.25774 2.45098,-1.25774 3.86997,-2.45098 -3.74097,-0.1935 -3.74097,-2.19299 0,-0.5805 0.25799,-0.96749 0.29025,-0.41925 1.032,-0.87075 l 2.90248,-1.80599 q -4.41822,-1.93499 -4.41822,-5.22447 0,-2.83798 2.06398,-4.77297 2.06399,-1.93498 5.32122,-1.93498 2.28974,0 3.90223,0.90299 2.74123,-0.1935 5.19222,-1.06424 z m -6.48221,7.15945 q 0,-1.96723 -0.87075,-3.25723 -0.87074,-1.32224 -2.22523,-1.32224 -1.0965,0 -1.74149,0.93525 -0.645,0.93524 -0.645,2.48323 0,1.93499 0.83849,3.12823 0.87075,1.16099 2.25749,1.16099 1.09649,0 1.74149,-0.83849 0.645,-0.8385 0.645,-2.28974 z m -0.93525,10.70694 -2.25748,0.0322 q -0.48375,0.0323 -1.87049,0.0323 -0.67725,0.99974 -0.67725,1.90274 0,2.28973 3.38623,2.28973 1.87049,0 3.41848,-0.516 0.516,-0.67724 0.516,-1.74149 0,-1.99948 -2.51549,-1.99948 z"
             style="font-style:normal;font-variant:normal;font-weight:bold;font-stretch:normal;font-family:'Albertus Nova';-inkscape-font-specification:'Albertus Nova Bold';text-align:start;text-anchor:start;fill:#d40055;fill-opacity:1;stroke-width:0.377927"
             id="path1647" />
          <path
             d="m -145.08541,294.30982 -9.83619,0.25799 q 0.516,4.96647 4.83747,4.96647 2.03174,0 4.80522,-1.70924 l 0.0645,0.0645 -1.32224,4.67623 q -1.99949,0.90299 -4.45047,0.90299 -4.16023,0 -6.48221,-2.35424 -2.28974,-2.35423 -2.28974,-6.83695 0,-4.48273 2.35424,-7.06271 2.35423,-2.61223 5.90171,-2.61223 3.16048,0 4.83747,1.96723 1.67699,1.96724 1.67699,5.48247 0,1.38674 -0.0967,2.25749 z m -9.80394,-2.32199 h 6.32096 q 0,-4.38597 -3.09598,-4.38597 -2.87023,0 -3.22498,4.38597 z"
             style="font-style:normal;font-variant:normal;font-weight:bold;font-stretch:normal;font-family:'Albertus Nova';-inkscape-font-specification:'Albertus Nova Bold';text-align:start;text-anchor:start;fill:#d40055;fill-opacity:1;stroke-width:0.377927"
             id="path1649" />
          <path
             d="m -331.61784,331.34605 q 0.0645,3.93447 -2.80574,6.80471 -2.87023,2.83798 -6.51446,2.77348 -3.70872,0 -6.22421,-2.32199 -2.48323,-2.35423 -2.48323,-6.57896 -0.0967,-4.19247 2.74123,-7.09495 2.87023,-2.93473 6.44996,-2.87023 4.03123,0 6.41771,2.51548 2.41874,2.48323 2.41874,6.77246 z m -12.93217,-0.29025 q 0,2.87023 1.16099,4.67622 1.16099,1.77374 3.12823,2.03174 1.67699,-0.258 2.61223,-1.87049 0.9675,-1.61249 0.9675,-4.22472 0,-2.77349 -1.22549,-4.61173 -1.2255,-1.83823 -3.06374,-1.83823 -1.61249,0 -2.61223,1.54799 -0.96749,1.54799 -0.96749,4.28922 z"
             style="font-style:normal;font-variant:normal;font-weight:bold;font-stretch:normal;font-family:'Albertus Nova';-inkscape-font-specification:'Albertus Nova Bold';text-align:start;text-anchor:start;fill:#d40055;fill-opacity:1;stroke-width:0.377927"
             id="path1651" />
          <path
             d="m -327.61888,335.53852 v -10.22318 h -2.61224 v -0.129 l 2.61224,-2.99924 v -1.54799 q 0,-3.06373 1.80598,-4.83747 1.83824,-1.77374 4.86972,-1.77374 2.03174,0 4.03123,0.48375 l -0.5805,4.54722 -0.0967,0.0322 q -1.99948,-1.99948 -3.51522,-1.99948 -1.93499,0 -1.93499,2.77348 v 2.48323 h 4.22472 v 2.96699 h -4.22472 v 10.22318 q 0,2.70899 0.93524,5.15997 h -6.44996 q 0.93525,-2.45098 0.93525,-5.15997 z"
             style="font-style:normal;font-variant:normal;font-weight:bold;font-stretch:normal;font-family:'Albertus Nova';-inkscape-font-specification:'Albertus Nova Bold';text-align:start;text-anchor:start;fill:#d40055;fill-opacity:1;stroke-width:0.377927"
             id="path1653" />
          <path
             d="m -307.84981,333.11979 v -11.25518 q 0,-4.28923 -1.12874,-7.57871 h 15.15741 l -2.28974,4.99872 q -2.80573,-1.64474 -6.9982,-1.74149 v 7.99795 h 8.38494 l -2.67673,4.54723 q -2.28974,-0.99975 -5.70821,-1.161 v 8.3527 q 6.19196,0 10.64243,-1.93499 l 0.0645,0.0645 -2.19299,5.28897 h -14.38341 q 1.12874,-3.28948 1.12874,-7.5787 z"
             style="font-style:normal;font-variant:normal;font-weight:bold;font-stretch:normal;font-family:'Albertus Nova';-inkscape-font-specification:'Albertus Nova Bold';text-align:start;text-anchor:start;fill:#d40055;fill-opacity:1;stroke-width:0.377927"
             id="path1655" />
          <path
             d="m -289.88668,335.53852 v -14.38341 q 0,-3.64423 -0.93525,-5.90171 l 6.32096,-1.19325 q -0.80624,3.22498 -0.80624,8.6107 v 12.86767 q 0,2.70899 0.93524,5.15997 h -6.44996 q 0.93525,-2.45098 0.93525,-5.15997 z"
             style="font-style:normal;font-variant:normal;font-weight:bold;font-stretch:normal;font-family:'Albertus Nova';-inkscape-font-specification:'Albertus Nova Bold';text-align:start;text-anchor:start;fill:#d40055;fill-opacity:1;stroke-width:0.377927"
             id="path1657" />
          <path
             d="m -259.89441,335.53852 v -5.96621 q 0,-3.51523 -3.09598,-3.51523 -1.22549,0 -2.54774,0.87075 0.0323,0.19349 0.0323,0.93524 v 7.67545 q 0,2.70899 0.93525,5.15997 h -6.48221 q 0.96749,-2.54773 0.96749,-5.15997 v -5.90171 q 0,-3.51523 -2.87023,-3.51523 -1.32224,0 -2.80573,0.96749 v 8.44945 q 0,2.70899 0.93524,5.15997 h -6.44996 q 0.93524,-2.45098 0.93524,-5.15997 v -8.2237 q 0,-2.54773 -0.77399,-4.96647 h 5.54697 q -0.1935,1.12875 -0.1935,2.38649 v 1.28999 l 0.96749,-1.67699 q 1.32224,-2.28973 4.22472,-2.28973 1.87049,0 3.16049,1.03199 1.32224,0.99974 1.70923,2.90248 l 0.9675,-1.67699 q 1.28999,-2.25748 4.19247,-2.25748 2.38649,0 3.80548,1.48349 1.41899,1.48349 1.41899,4.28922 v 7.7077 q 0,2.70899 0.93525,5.15997 h -6.44997 q 0.93525,-2.45098 0.93525,-5.15997 z"
             style="font-style:normal;font-variant:normal;font-weight:bold;font-stretch:normal;font-family:'Albertus Nova';-inkscape-font-specification:'Albertus Nova Bold';text-align:start;text-anchor:start;fill:#d40055;fill-opacity:1;stroke-width:0.377927"
             id="path1659" />
          <path
             d="m -231.6114,322.34835 h 5.74047 v 0.0968 q -0.8385,1.0965 -1.35449,2.22524 -0.516,1.12874 -1.06425,3.09598 l -3.67647,12.93217 h -4.99872 l -3.16048,-11.38418 -3.12823,11.38418 h -4.99872 l -3.06373,-12.25492 q -0.9675,-3.96673 -2.61224,-5.99847 v -0.0968 h 6.99821 q -0.41925,1.06425 -0.41925,2.35424 0,1.19324 0.35475,2.54773 l 1.93499,7.70771 3.45073,-12.60968 h 4.22472 l 3.57973,12.89992 2.03173,-7.1917 q 0.516,-1.64474 0.516,-3.54748 0,-0.99974 -0.35475,-2.16074 z"
             style="font-style:normal;font-variant:normal;font-weight:bold;font-stretch:normal;font-family:'Albertus Nova';-inkscape-font-specification:'Albertus Nova Bold';text-align:start;text-anchor:start;fill:#d40055;fill-opacity:1;stroke-width:0.377927"
             id="path1661" />
          <path
             d="m -214.90602,322.34835 h 6.06296 v 0.0968 q -1.22549,1.74149 -2.51548,5.35347 l -4.90197,13.60942 q -1.67699,4.67622 -3.22498,5.67596 h -5.19222 v -0.129 q 2.93473,-2.41873 4.77297,-6.99821 l -4.51497,-12.41617 q -1.38674,-3.64423 -2.48323,-5.09547 v -0.0968 h 6.8692 q -0.35474,0.87075 -0.35474,1.80599 0,1.06425 0.45149,2.41874 l 2.45099,6.83696 2.32198,-6.41772 q 0.54825,-1.58024 0.54825,-2.93473 0,-0.83849 -0.29025,-1.70924 z"
             style="font-style:normal;font-variant:normal;font-weight:bold;font-stretch:normal;font-family:'Albertus Nova';-inkscape-font-specification:'Albertus Nova Bold';text-align:start;text-anchor:start;fill:#d40055;fill-opacity:1;stroke-width:0.377927"
             id="path1663" />
          <path
             d="m -194.6209,322.5096 -0.38699,4.99872 -0.0967,0.0322 q -2.28974,-2.09624 -4.19248,-2.09624 -1.83824,0 -2.96698,1.419 -1.12874,1.41899 -1.12874,4.03122 0,2.99923 1.54799,4.74072 1.58024,1.74149 4.16022,1.74149 1.74149,0 3.32173,-0.67725 l 0.0645,0.0645 -2.03173,3.80548 q -1.161,0.35475 -2.83799,0.35475 -3.96672,0 -6.61121,-2.32199 -2.61223,-2.32198 -2.61223,-6.77246 0,-4.25697 2.67673,-6.9982 2.70899,-2.77348 7.19171,-2.77348 1.90274,0 3.90222,0.45149 z"
             style="font-style:normal;font-variant:normal;font-weight:bold;font-stretch:normal;font-family:'Albertus Nova';-inkscape-font-specification:'Albertus Nova Bold';text-align:start;text-anchor:start;fill:#d40055;fill-opacity:1;stroke-width:0.377927"
             id="path1665" />
          <path
             d="m -186.94546,322.67085 v 12.86767 q 0,2.70899 0.93524,5.15997 h -6.44996 q 0.93524,-2.45098 0.93524,-5.15997 v -14.38341 q 0,-3.64423 -0.93524,-5.90171 l 6.32096,-1.19325 q -0.80624,3.22498 -0.80624,8.6107 z m 11.54542,17.93089 v 0.0967 h -6.90145 q 0.16125,-1.61249 -1.0965,-3.77323 l -3.51523,-6.15971 4.12798,-5.67596 q 0.90299,-1.19325 1.03199,-2.74124 h 6.15972 v 0.129 q -2.06399,1.64474 -4.09573,4.48272 l -2.35424,3.19274 2.93474,5.06321 q 1.32224,2.25749 3.70872,5.38572 z"
             style="font-style:normal;font-variant:normal;font-weight:bold;font-stretch:normal;font-family:'Albertus Nova';-inkscape-font-specification:'Albertus Nova Bold';text-align:start;text-anchor:start;fill:#d40055;fill-opacity:1;stroke-width:0.377927"
             id="path1667" />
          <path
             d="m -160.21044,331.7653 -9.83619,0.25799 q 0.516,4.96647 4.83747,4.96647 2.03174,0 4.80522,-1.70924 l 0.0645,0.0645 -1.32224,4.67622 q -1.99949,0.903 -4.45047,0.903 -4.16023,0 -6.48221,-2.35424 -2.28974,-2.35423 -2.28974,-6.83695 0,-4.48273 2.35424,-7.06271 2.35423,-2.61223 5.90171,-2.61223 3.16048,0 4.83747,1.96723 1.67699,1.96724 1.67699,5.48247 0,1.38674 -0.0968,2.25749 z m -9.80394,-2.32199 h 6.32096 q 0,-4.38597 -3.09598,-4.38597 -2.87023,0 -3.22498,4.38597 z"
             style="font-style:normal;font-variant:normal;font-weight:bold;font-stretch:normal;font-family:'Albertus Nova';-inkscape-font-specification:'Albertus Nova Bold';text-align:start;text-anchor:start;fill:#d40055;fill-opacity:1;stroke-width:0.377927"
             id="path1669" />
        </g>
      </g>
    </g>
  </g>
</svg>
