<?xml version="1.0" encoding="UTF-8" standalone="no"?>
<!-- Created with Inkscape (http://www.inkscape.org/) -->

<svg
   width="149.99998mm"
   height="150mm"
   viewBox="0 0 149.99998 150"
   version="1.1"
   id="svg1282"
   inkscape:version="1.1.2 (b8e25be833, 2022-02-05)"
   sodipodi:docname="favicon.svg"
   xmlns:inkscape="http://www.inkscape.org/namespaces/inkscape"
   xmlns:sodipodi="http://sodipodi.sourceforge.net/DTD/sodipodi-0.dtd"
   xmlns="http://www.w3.org/2000/svg"
   xmlns:svg="http://www.w3.org/2000/svg">
  <sodipodi:namedview
     id="namedview1284"
     pagecolor="#ffffff"
     bordercolor="#666666"
     borderopacity="1.0"
     inkscape:pageshadow="2"
     inkscape:pageopacity="0.0"
     inkscape:pagecheckerboard="0"
     inkscape:document-units="mm"
     showgrid="false"
     inkscape:zoom="0.45344416"
     inkscape:cx="177.53013"
     inkscape:cy="567.87588"
     inkscape:window-width="1280"
     inkscape:window-height="738"
     inkscape:window-x="-6"
     inkscape:window-y="-6"
     inkscape:window-maximized="1"
     inkscape:current-layer="layer1" />
  <defs
     id="defs1279" />
  <g
     inkscape:label="Layer 1"
     inkscape:groupmode="layer"
     id="layer1"
     transform="translate(-58.037333,1.479368)">
    <path
       style="fill:#ffffff;stroke-width:0.561868"
       d="M 125.40497,148.04174 C 103.55474,145.92473 82.57615,133.13131 70.3082,114.44191 64.49481,105.58563 61.10345,97.20679 59.01251,86.53433 57.71762,79.925 57.71123,67.66545 58.99971,60.55867 63.68553,34.69815 81.24679,13.17937 105.33838,3.77729 c 10.07435,-3.93165 16.8571,-5.21863 27.69816,-5.25557 10.02284,-0.0341 15.32481,0.72581 23.38451,3.35195 13.8494,4.51261 27.1043,13.81607 35.8855,25.18758 8.41211,10.89355 12.56338,19.94383 14.70991,32.06939 1.34186,7.58018 1.36543,23.52055 0.0437,29.39151 -3.35415,14.89603 -9.72579,26.44311 -20.71216,37.53603 -13.0508,13.17727 -28.28543,20.39783 -46.38062,21.98236 -7.30826,0.63995 -7.96819,0.64001 -14.56139,8.6e-4 z m -14.58329,-23.88766 c 3.40241,-1.69585 8.33732,-4.21315 10.96646,-5.59399 6.96834,-3.65988 11.93585,-4.27142 19.40217,-2.3886 1.23722,0.31197 6.04563,2.03754 10.68527,3.83451 4.63967,1.79696 10.49972,3.82812 13.02232,4.51366 l 4.58662,1.24643 3.36053,-2.58113 c 7.03124,-5.40049 14.31343,-14.78468 18.63338,-24.01183 2.50933,-5.35978 4.34452,-11.65682 3.80573,-13.05825 -0.33324,-0.86683 -0.5681,-0.84365 -2.76536,0.27301 -1.32068,0.67114 -4.2471,2.46223 -6.50315,3.98023 -9.3231,6.27303 -16.66669,8.50944 -23.88497,7.27394 -2.17043,-0.37153 -6.79327,-1.79947 -10.27295,-3.1732 -13.33884,-5.26592 -16.46801,-5.0446 -31.76856,2.24734 -9.91424,4.72492 -14.95498,6.1624 -19.86543,5.66509 -1.8078,-0.18296 -7.09648,-1.61942 -11.75262,-3.19185 C 79.41725,96.1319 73.98355,95.1193 73.98838,96.4906 c 0.003,1.10876 3.51473,7.79558 6.56331,12.5006 4.31215,6.6552 13.98264,15.90065 18.86535,18.03621 2.54855,1.11461 4.27776,0.67899 11.40464,-2.87326 z m -3.17115,-45.96682 c 1.1575,-0.14241 4.86369,-2.17616 9.56049,-5.2458 11.65859,-7.61965 12.98967,-8.21524 18.35547,-8.21336 5.45189,8.6e-4 7.68183,0.77116 16.87146,5.81971 l 6.74859,3.70755 5.90503,-0.003 c 6.94426,-0.003 8.39834,-0.5947 17.66501,-7.16836 3.06559,-2.17469 7.07069,-4.70059 8.90018,-5.61314 1.82954,-0.91255 3.44641,-1.97128 3.59305,-2.35274 0.60826,-1.58216 -6.47186,-18.12573 -9.18665,-21.46586 l -1.00703,-1.23897 -4.49904,3.92911 c -2.72365,2.3786 -6.36876,4.86124 -9.23691,6.29113 -4.71031,2.34827 -4.7741,2.36199 -10.96647,2.36199 h -6.2286 l -7.06997,-3.20877 c -14.73244,-6.68653 -19.92288,-6.57978 -32.578,0.67022 -6.99412,4.00685 -10.16209,5.06466 -15.16822,5.06466 -4.78795,0 -9.05997,-1.12669 -16.05244,-4.23367 -3.09774,-1.37641 -5.93964,-2.50256 -6.31536,-2.50256 -1.44732,0 -4.7726,8.88495 -6.56255,17.53488 -1.3913,6.72333 -1.55756,6.38817 3.39102,6.83575 4.91814,0.44485 8.81306,1.79455 16.95937,5.87682 7.8425,3.93008 8.95188,4.13696 16.92157,3.15541 z m 3.45235,-48.42446 c 2.6291,-1.28294 6.58613,-3.3614 8.79336,-4.61872 5.10865,-2.91014 10.65257,-4.16522 14.87094,-3.36666 1.63181,0.30877 5.00995,1.46972 7.50693,2.57961 10.86368,4.82877 12.75165,5.41976 16.3845,5.12883 1.87479,-0.15008 4.65858,-0.82402 6.18616,-1.49757 2.65004,-1.16842 6.433,-4.23687 6.433,-5.21798 0,-0.7218 -7.17349,-5.16962 -11.46681,-7.10986 -9.97247,-4.50677 -18.01152,-5.99014 -29.79899,-5.49845 -10.59123,0.44174 -15.42728,1.70966 -25.22334,6.6129 -7.77503,3.89168 -16.74345,10.20377 -16.74345,11.78428 0,0.51569 3.84181,2.61563 6.18623,3.38138 0.77325,0.25259 3.81014,0.39075 6.74858,0.3072 4.97476,-0.14147 5.67179,-0.31262 10.12289,-2.48485 z"
       id="path32493"
       sodipodi:nodetypes="csscssssscssccssssscsssssssssscssscscsccsssscssscssssssssccssssssssssssss"
       inkscape:export-filename="C:\Users\lawre\downloads\icon.png"
       inkscape:export-xdpi="86.699997"
       inkscape:export-ydpi="86.699997" />
  </g>
</svg>
