<?xml version="1.0" encoding="UTF-8" standalone="no"?>
<!-- Created with Inkscape (http://www.inkscape.org/) -->

<svg
   version="1.0"
   width="512.72125"
   height="748.92255"
   viewBox="0 0 51.272125 74.892255"
   id="svg0"
   sodipodi:docname="supreme court.svg"
   inkscape:version="1.1 (c4e8f9e, 2021-05-24)"
   xmlns:inkscape="http://www.inkscape.org/namespaces/inkscape"
   xmlns:sodipodi="http://sodipodi.sourceforge.net/DTD/sodipodi-0.dtd"
   xmlns:xlink="http://www.w3.org/1999/xlink"
   xmlns="http://www.w3.org/2000/svg"
   xmlns:svg="http://www.w3.org/2000/svg">
  <sodipodi:namedview
     id="namedview850"
     pagecolor="#ffffff"
     bordercolor="#666666"
     borderopacity="1.0"
     inkscape:pageshadow="2"
     inkscape:pageopacity="0.0"
     inkscape:pagecheckerboard="0"
     showgrid="false"
     fit-margin-top="0"
     fit-margin-left="0"
     fit-margin-right="0"
     fit-margin-bottom="0"
     inkscape:snap-bbox="true"
     inkscape:snap-bbox-midpoints="true"
     inkscape:snap-nodes="false"
     inkscape:bbox-paths="true"
     inkscape:bbox-nodes="true"
     inkscape:snap-bbox-edge-midpoints="true"
     inkscape:zoom="0.22291406"
     inkscape:cx="172.7123"
     inkscape:cy="663.93299"
     inkscape:window-width="1293"
     inkscape:window-height="791"
     inkscape:window-x="0"
     inkscape:window-y="25"
     inkscape:window-maximized="0"
     inkscape:current-layer="layer1" />
  <defs
     id="defs4">
    <radialGradient
       id="shadowGradient">
      <stop
         id="stop17"
         style="stop-color:#c0c0c0;stop-opacity:1"
         offset="0" />
      <stop
         id="stop19"
         style="stop-color:#c0c0c0;stop-opacity:1"
         offset="0.88" />
      <stop
         id="stop21"
         style="stop-color:#c0c0c0;stop-opacity:0"
         offset="1" />
    </radialGradient>
    <linearGradient
       x1="52.778114"
       y1="-13.238551"
       x2="22.0144"
       y2="51.987099"
       id="fieldGradient"
       gradientUnits="userSpaceOnUse">
      <stop
         id="stop7"
         style="stop-color:#ffe1b8;stop-opacity:1"
         offset="0" />
      <stop
         id="stop9"
         style="stop-color:#ff8b00;stop-opacity:1"
         offset="1" />
    </linearGradient>
    <linearGradient
       x1="54.509937"
       y1="41.179295"
       x2="9.5471001"
       y2="16.248501"
       id="edgeGradient"
       xlink:href="#fieldGradient"
       gradientUnits="userSpaceOnUse"
       spreadMethod="pad">
      <stop
         id="stop12"
         style="stop-color:#f98433;stop-opacity:1"
         offset="0" />
      <stop
         id="stop14"
         style="stop-color:#e37b00;stop-opacity:1"
         offset="1" />
    </linearGradient>
    <filter
       id="Gaussian_Blur">
      <feGaussianBlur
         in="SourceGraphic"
         stdDeviation="1.5"
         id="feGaussianBlur2514" />
    </filter>
    <clipPath
       clipPathUnits="userSpaceOnUse"
       id="clipPath884">
      <rect
         style="opacity:0.99;fill:#ffffff;stroke-width:2.154;stroke-linecap:round;stroke-linejoin:round;stroke-opacity:0.992157;paint-order:stroke markers fill"
         id="rect886"
         width="90"
         height="66"
         x="0"
         y="0" />
    </clipPath>
  </defs>
  <g
     inkscape:label="Layer 1"
     id="layer1"
     transform="matrix(0.37795276,0,0,0.37795276,16.059942,63.146353)">
    <g
       id="g71144"
       transform="matrix(0.99999999,0,0,1.0001247,-366.82013,721.56293)">
      <g
         aria-label="WATERSIDE PARK "
         transform="scale(0.99868183,1.0013199)"
         id="text65258"
         style="font-size:15.7582px;line-height:1.25;font-family:'Albertus Medium';-inkscape-font-specification:'Albertus Medium, ';fill:#ffffff;stroke:#ffffff;stroke-width:0.393956">
        <path
           d="m 328.71095,-689.87073 -2.27755,-8.5639 q -0.4078,-1.50042 -0.70019,-2.26986 -0.2847,-0.76944 -0.60017,-1.22341 h 1.46964 1.47733 q -0.20006,0.45397 -0.20006,1.22341 0.008,0.76944 0.21545,1.56966 l 1.44655,5.85547 v 0 0 l 2.91619,-8.88707 v 0 l 2.88541,8.85629 v 0 0 l 1.46964,-5.82469 q 0.20006,-0.73097 0.20775,-1.53888 0.008,-0.81561 -0.18467,-1.25419 h 1.47734 1.47733 q -0.30778,0.44627 -0.59247,1.21572 -0.2847,0.76174 -0.7002,2.27755 l -2.28524,8.5639 h -1.46195 l -2.33141,-6.92499 v 0 0 l -2.24677,6.92499 z"
           id="path71623" />
        <path
           d="m 341.92229,-693.364 4.12422,-8.80243 v 0 l 4.13191,8.80243 q 0.71558,1.5158 1.16956,2.28525 0.45397,0.76944 0.89255,1.20802 h -1.49272 -1.49272 q 0.0923,-0.36164 -0.0923,-1.12338 -0.17698,-0.76945 -0.5617,-1.6697 l -0.40011,-0.93102 v 0 h -4.46277 v 0 l -0.0539,0.17697 q -0.46167,1.06952 -0.70789,2.10058 -0.24622,1.03105 -0.1385,1.44655 h -1.50811 -1.5158 q 0.49244,-0.49244 0.95411,-1.26188 0.46167,-0.76945 1.15416,-2.23139 z m 4.04728,-5.40919 -1.56197,3.63947 v 0 h 3.13163 v 0 z"
           id="path71625" />
        <path
           d="m 356.51094,-693.364 v -7.26355 0 q -0.95411,0.0385 -1.63891,0.1385 -1.33114,0.19237 -2.19292,0.64634 l 0.35395,-1.03875 0.35394,-1.04644 v 0 h 4.03958 v 0 h 4.63974 v 0 l -0.28469,0.99258 -0.29239,0.99258 q -1.06183,-0.40011 -1.80819,-0.56939 -0.65403,-0.1385 -1.33883,-0.16158 v 0 7.30971 q 0,1.04644 0.10002,1.81589 0.10773,0.76944 0.36934,1.67738 h -1.37731 -1.385 q 0.26162,-0.88486 0.36164,-1.6543 0.10003,-0.76944 0.10003,-1.83897 z"
           id="path71627" />
        <path
           d="m 363.4821,-689.87073 q 0.23083,-0.80022 0.32316,-1.56966 0.0923,-0.76945 0.0923,-1.92361 v -5.07063 q 0,-1.13108 -0.0923,-1.90053 -0.0923,-0.76944 -0.33086,-1.59274 h 2.25447 v 0 h 4.40122 v 0 l -0.46167,0.98488 -0.46936,0.99258 q -0.6925,-0.36933 -1.36191,-0.51552 -0.66942,-0.15389 -1.61583,-0.15389 h -0.49245 v 0 3.94724 0 h 3.97803 l -0.554,0.9772 -0.554,0.97719 q -0.58478,-0.35394 -1.21572,-0.50014 -0.63095,-0.14619 -1.58506,-0.14619 h -0.0693 v 0 4.17038 0 q 1.63122,-0.0462 2.68536,-0.23853 1.40039,-0.25391 2.4853,-0.86947 l -0.50014,1.21572 -0.50783,1.21572 v 0 h -4.16269 v 0 z"
           id="path71629" />
        <path
           d="m 372.57692,-693.364 v -5.07063 q 0,-1.13108 -0.0923,-1.90053 -0.0923,-0.76944 -0.33087,-1.59274 h 1.33884 v 0 h 0.90794 q 2.30833,0 3.55483,0.93102 1.2465,0.93103 1.2465,2.64689 0,1.53888 -1.385,2.4776 -0.43858,0.2847 -0.95411,0.50784 v 0 l 0.86947,1.30805 q 0.62325,0.91564 1.3773,1.83897 0.75406,0.91564 2.05442,2.3468 h -2.14675 q -0.93103,-0.78483 -2.17753,-2.25447 -1.2388,-1.46963 -2.11596,-2.80846 l -0.31548,-0.48475 v 0 2.05441 q 0,1.13878 0.0923,1.90822 0.0923,0.76944 0.33086,1.58505 h -1.33114 -1.33883 q 0.23083,-0.80022 0.32317,-1.56966 0.0923,-0.76945 0.0923,-1.92361 z m 1.83127,-2.50069 v 0 q 1.19264,-0.0693 1.939,-0.6925 0.86178,-0.70789 0.86178,-1.86205 0,-1.05414 -0.81561,-1.70047 -0.76175,-0.59247 -1.98517,-0.64634 v 0 z"
           id="path71631" />
        <path
           d="m 387.82729,-699.55032 q -0.53861,-0.57709 -1.07722,-0.8387 -0.53861,-0.26161 -1.18495,-0.26161 -0.75405,0 -1.25419,0.46167 -0.49244,0.45397 -0.49244,1.13877 0,0.58478 0.38472,1.06184 0.37703,0.46936 1.36191,1.0926 1.49272,0.95411 2.10058,1.78511 0.60786,0.831 0.60786,1.939 0,1.50042 -1.06183,2.493 -1.06183,0.99258 -2.66997,0.99258 -0.80022,0 -1.36961,-0.11542 -0.56938,-0.11541 -1.33113,-0.43089 v -2.25446 q 0.554,0.69249 1.14647,1.01566 0.59247,0.32317 1.30036,0.32317 0.89255,0 1.47733,-0.50784 0.59247,-0.51552 0.59247,-1.28497 0,-0.66941 -0.40011,-1.18494 -0.39242,-0.50783 -1.40808,-1.15416 -1.46194,-0.92334 -2.05442,-1.71586 -0.59247,-0.79253 -0.59247,-1.81589 0,-1.41577 1.07722,-2.3545 1.08492,-0.94641 2.71614,-0.94641 0.65403,0 1.16186,0.11542 0.51553,0.11541 0.9695,0.36163 z"
           id="path71633" />
        <path
           d="m 390.51264,-693.364 v -5.07063 q 0,-1.13108 -0.0923,-1.90053 -0.0923,-0.76944 -0.33086,-1.59274 h 1.33114 1.33883 q -0.23084,0.80791 -0.32317,1.57735 -0.0923,0.76175 -0.0923,1.91592 v 5.07063 q 0,1.13878 0.0923,1.90822 0.0923,0.76944 0.33086,1.58505 h -1.33113 -1.33884 q 0.23084,-0.80022 0.32317,-1.56966 0.0923,-0.76175 0.0923,-1.92361 z"
           id="path71635" />
        <path
           d="m 395.36014,-693.364 v -5.07063 q 0,-1.13108 -0.0923,-1.90053 -0.0923,-0.76944 -0.33086,-1.59274 h 1.33883 v 0 h 0.71559 q 3.27783,0 5.20143,1.66199 1.92361,1.65431 1.92361,4.47816 0,2.72383 -1.7928,4.32427 -1.78511,1.59275 -4.8398,1.59275 h -1.20803 v 0 h -1.33113 q 0.23083,-0.80022 0.32316,-1.56966 0.0923,-0.76945 0.0923,-1.92361 z m 1.83127,2.17752 v 0 q 2.25447,0 3.62408,-1.21572 1.36961,-1.21572 1.36961,-3.20088 0,-2.25447 -1.30036,-3.63177 -1.30036,-1.37731 -3.43941,-1.37731 h -0.25392 v 0 z"
           id="path71637" />
        <path
           d="m 406.20159,-689.87073 q 0.23083,-0.80022 0.32316,-1.56966 0.0923,-0.76945 0.0923,-1.92361 v -5.07063 q 0,-1.13108 -0.0923,-1.90053 -0.0923,-0.76944 -0.33086,-1.59274 h 2.25447 v 0 h 4.40122 v 0 l -0.46167,0.98488 -0.46936,0.99258 q -0.6925,-0.36933 -1.36191,-0.51552 -0.66942,-0.15389 -1.61583,-0.15389 h -0.49245 v 0 3.94724 0 h 3.97803 l -0.554,0.9772 -0.554,0.97719 q -0.58478,-0.35394 -1.21572,-0.50014 -0.63095,-0.14619 -1.58506,-0.14619 h -0.0693 v 0 4.17038 0 q 1.63122,-0.0462 2.68536,-0.23853 1.40039,-0.25391 2.4853,-0.86947 l -0.50014,1.21572 -0.50783,1.21572 v 0 h -4.16269 v 0 z"
           id="path71639" />
        <path
           d="m 419.65146,-693.364 v -5.07063 q 0,-1.13108 -0.0923,-1.90053 -0.0923,-0.76944 -0.33087,-1.59274 h 1.33884 v 0 h 1.50041 q 2.15444,0 3.22397,0.89255 1.07722,0.88486 1.07722,2.66227 0,1.91592 -1.25419,2.80078 -1.17725,0.8233 -3.63178,0.87716 v 0 1.33114 q 0,1.13878 0.0923,1.90822 0.0923,0.76944 0.33086,1.58505 h -1.33114 -1.33883 q 0.23083,-0.80022 0.32317,-1.56966 0.0923,-0.76945 0.0923,-1.92361 z m 1.83127,-2.24677 v 0 q 1.48503,-0.0154 2.18522,-0.61556 0.70789,-0.60786 0.70789,-1.939 0,-1.30036 -0.65403,-1.94669 -0.64633,-0.64633 -1.94669,-0.64633 h -0.29239 v 0 z"
           id="path71641" />
        <path
           d="m 428.80784,-693.364 4.12422,-8.80243 v 0 l 4.13191,8.80243 q 0.71558,1.5158 1.16955,2.28525 0.45397,0.76944 0.89256,1.20802 h -1.49272 -1.49272 q 0.0923,-0.36164 -0.0923,-1.12338 -0.17697,-0.76945 -0.56169,-1.6697 l -0.40011,-0.93102 v 0 h -4.46277 v 0 l -0.0539,0.17697 q -0.46167,1.06952 -0.70789,2.10058 -0.24622,1.03105 -0.1385,1.44655 h -1.50811 -1.5158 q 0.49244,-0.49244 0.95411,-1.26188 0.46166,-0.76945 1.15416,-2.23139 z m 4.04727,-5.40919 -1.56197,3.63947 v 0 h 3.13164 v 0 z"
           id="path71643" />
        <path
           d="m 440.87271,-693.364 v -5.07063 q 0,-1.13108 -0.0923,-1.90053 -0.0923,-0.76944 -0.33086,-1.59274 h 1.33883 v 0 h 0.90794 q 2.30833,0 3.55483,0.93102 1.2465,0.93103 1.2465,2.64689 0,1.53888 -1.385,2.4776 -0.43858,0.2847 -0.95411,0.50784 v 0 l 0.86947,1.30805 q 0.62325,0.91564 1.3773,1.83897 0.75406,0.91564 2.05442,2.3468 h -2.14675 q -0.93103,-0.78483 -2.17752,-2.25447 -1.23881,-1.46963 -2.11597,-2.80846 l -0.31547,-0.48475 v 0 2.05441 q 0,1.13878 0.0923,1.90822 0.0923,0.76944 0.33086,1.58505 h -1.33114 -1.33883 q 0.23083,-0.80022 0.32317,-1.56966 0.0923,-0.76945 0.0923,-1.92361 z m 1.83128,-2.50069 v 0 q 1.19263,-0.0693 1.93899,-0.6925 0.86178,-0.70789 0.86178,-1.86205 0,-1.05414 -0.81561,-1.70047 -0.76175,-0.59247 -1.98516,-0.64634 v 0 z"
           id="path71645" />
        <path
           d="m 452.3682,-693.364 q 0,1.13878 0.0923,1.90822 0.0923,0.76944 0.33086,1.58505 h -1.33114 -1.33883 q 0.23083,-0.80022 0.32317,-1.56966 0.0923,-0.76945 0.0923,-1.92361 v -5.07063 q 0,-1.13108 -0.0923,-1.89283 -0.0923,-0.76945 -0.33086,-1.60044 h 1.33113 1.33883 q -0.23083,0.80791 -0.32316,1.57735 -0.0923,0.76945 -0.0923,1.91592 v 1.82358 0 l 1.76202,-2.16983 q 1.03105,-1.2465 1.50041,-1.939 0.47706,-0.6925 0.63864,-1.20802 h 1.51581 1.5158 q -0.52322,0.30008 -1.13878,0.91563 -0.61555,0.60786 -1.66199,1.87744 l -2.09289,2.53917 v 0 l 2.54686,3.23166 q 1.48502,1.84666 2.13905,2.61611 0.65403,0.76944 0.8233,0.87716 h -1.56966 -1.57736 q -0.008,-0.33855 -0.277,-0.87716 -0.26161,-0.53861 -0.6925,-1.07722 l -3.43171,-4.32428 v 0 z"
           id="path71647" />
      </g>
      <g
         aria-label="COLLEGE OF"
         id="text69168"
         style="font-size:21.9512px;line-height:1.25;font-family:'Albertus Medium';-inkscape-font-specification:'Albertus Medium, ';fill:#ffffff;stroke:#ffffff;stroke-width:0.548782"
         transform="matrix(1.5318331,0,0,1.5318331,-174.17279,463.87843)">
        <g
           aria-label="SUPREME COURT"
           transform="scale(1.0000623,0.99993765)"
           id="text19535"
           style="font-weight:bold;font-size:10.5827px;-inkscape-font-specification:'Albertus Medium,  Bold';stroke-width:0.14519">
          <path
             d="m 329.61718,-881.12899 q -0.36171,-0.38755 -0.72343,-0.56323 -0.36171,-0.17569 -0.79577,-0.17569 -0.5064,0 -0.84227,0.31004 -0.33071,0.30487 -0.33071,0.76476 0,0.39272 0.25836,0.71309 0.2532,0.31521 0.91462,0.73377 1.00247,0.64074 1.41069,1.19882 0.40821,0.55807 0.40821,1.30216 0,1.00763 -0.71309,1.67422 -0.71309,0.66659 -1.79306,0.66659 -0.53741,0 -0.91979,-0.0775 -0.38238,-0.0775 -0.89395,-0.28937 v -1.51403 q 0.37205,0.46506 0.76994,0.68209 0.39788,0.21702 0.87328,0.21702 0.59941,0 0.99212,-0.34104 0.39789,-0.34621 0.39789,-0.86295 0,-0.44955 -0.2687,-0.79576 -0.26354,-0.34105 -0.94563,-0.7751 -0.98179,-0.62008 -1.37967,-1.15232 -0.39789,-0.53224 -0.39789,-1.21949 0,-0.95079 0.72343,-1.58121 0.72859,-0.63558 1.82407,-0.63558 0.43922,0 0.78027,0.0775 0.34621,0.0775 0.65108,0.24287 z"
             id="path20629" />
          <path
             d="m 332.5884,-880.37972 v 2.08243 q -0.005,1.42102 0.48573,2.11344 0.49089,0.69243 1.49335,0.69243 0.91979,0 1.37452,-0.55291 0.45989,-0.5529 0.45989,-1.65871 v 0 -2.67668 q 0,-0.7596 -0.062,-1.27633 -0.062,-0.51674 -0.22219,-1.06964 h 0.89394 0.89912 q -0.15502,0.54257 -0.21703,1.0593 -0.062,0.51674 -0.062,1.28667 v 3.40527 q 0,0.76477 0.062,1.2815 0.062,0.51673 0.2222,1.06447 h -0.69243 -0.69759 v 0 -0.88878 0 0 l -0.21186,0.17569 q -1.0748,0.84227 -2.28913,0.84227 -1.30733,0 -1.98942,-0.89394 -0.67692,-0.89912 -0.67692,-2.62501 v -2.36147 q 0,-0.7596 -0.062,-1.27633 -0.062,-0.51674 -0.22219,-1.06964 h 0.89395 0.89911 q -0.15502,0.54257 -0.21703,1.0593 -0.062,0.51157 -0.062,1.28667 z"
             id="path20631" />
          <path
             d="m 339.45578,-876.97445 v -3.40527 q 0,-0.7596 -0.062,-1.27633 -0.062,-0.51674 -0.2222,-1.06964 h 0.89912 v 0 h 1.00763 q 1.44685,0 2.16511,0.59941 0.72343,0.59424 0.72343,1.7879 0,1.28666 -0.84228,1.88091 -0.7906,0.5529 -2.43898,0.58907 v 0 0.89395 q 0,0.76477 0.062,1.2815 0.062,0.51673 0.22219,1.06447 h -0.89395 -0.89911 q 0.15502,-0.5374 0.21703,-1.05414 0.062,-0.51673 0.062,-1.29183 z m 1.22983,-1.50886 v 0 q 0.99729,-0.0103 1.46752,-0.41339 0.4754,-0.40822 0.4754,-1.30216 0,-0.87328 -0.43923,-1.30734 -0.43405,-0.43406 -1.30733,-0.43406 h -0.19636 v 0 z"
             id="path20633" />
          <path
             d="m 345.31554,-876.97445 v -3.40527 q 0,-0.7596 -0.062,-1.27633 -0.062,-0.51674 -0.22219,-1.06964 h 0.89911 v 0 h 0.60975 q 1.5502,0 2.38731,0.62525 0.83711,0.62524 0.83711,1.77756 0,1.03347 -0.93013,1.66388 -0.29453,0.19119 -0.64074,0.34104 v 0 l 0.5839,0.87845 q 0.41856,0.61491 0.92496,1.23499 0.5064,0.61492 1.37968,1.57604 h -1.44169 q -0.62525,-0.52707 -1.46236,-1.51403 -0.83194,-0.98696 -1.42101,-1.88607 l -0.21186,-0.32555 v 0 1.37968 q 0,0.76477 0.062,1.2815 0.062,0.51673 0.2222,1.06447 h -0.89395 -0.89912 q 0.15502,-0.5374 0.21703,-1.05414 0.062,-0.51673 0.062,-1.29183 z m 1.22983,-1.67938 v 0 q 0.80093,-0.0465 1.30216,-0.46506 0.57875,-0.4754 0.57875,-1.2505 0,-0.70792 -0.54774,-1.14198 -0.51157,-0.39788 -1.33317,-0.43405 v 0 z"
             id="path20635" />
          <path
             d="m 351.69203,-874.62848 q 0.15502,-0.5374 0.21703,-1.05414 0.062,-0.51673 0.062,-1.29183 v -3.40527 q 0,-0.7596 -0.062,-1.27633 -0.062,-0.51674 -0.2222,-1.06964 h 1.51403 v 0 h 2.95572 v 0 l -0.31004,0.66142 -0.31521,0.66658 q -0.46506,-0.24803 -0.91462,-0.34621 -0.44956,-0.10334 -1.08514,-0.10334 h -0.33071 v 0 2.65084 0 h 2.67151 l -0.37205,0.65625 -0.37204,0.65625 q -0.39272,-0.2377 -0.81644,-0.33588 -0.42372,-0.0982 -1.06447,-0.0982 h -0.0465 v 0 2.8007 0 q 1.09548,-0.031 1.8034,-0.16019 0.94045,-0.17052 1.66905,-0.58391 l -0.33588,0.81644 -0.34104,0.81644 v 0 h -2.79553 v 0 z"
             id="path20637" />
          <path
             d="m 358.95213,-876.97445 q 0,0.76477 0.062,1.2815 0.062,0.51673 0.2222,1.06447 h -0.89395 -0.89912 q 0.15502,-0.5374 0.21703,-1.05414 0.062,-0.51673 0.062,-1.29183 v -4.77978 l -0.83711,-0.97146 h 0.95079 0.95079 q 0.005,0.16019 0.0982,0.36688 0.093,0.20153 0.24286,0.38238 l 2.55267,3.15208 v 0 0 l 2.33046,-2.96605 q 0.2067,-0.25837 0.33588,-0.51157 0.12918,-0.25837 0.12918,-0.42372 h 0.86295 0.86811 q -0.37205,0.54774 -0.5219,1.06447 -0.14469,0.51673 -0.14469,1.2815 v 3.40527 q 0,0.76477 0.062,1.2815 0.062,0.51673 0.2222,1.06447 h -0.89395 -0.89912 q 0.15502,-0.5374 0.21703,-1.05414 0.062,-0.51673 0.062,-1.29183 v -3.48795 0 l -2.67668,3.48795 v 0 l -2.68185,-3.30709 v 0 z"
             id="path20639" />
          <path
             d="m 367.29738,-874.62848 q 0.15502,-0.5374 0.21703,-1.05414 0.062,-0.51673 0.062,-1.29183 v -3.40527 q 0,-0.7596 -0.062,-1.27633 -0.062,-0.51674 -0.2222,-1.06964 h 1.51403 v 0 h 2.95571 v 0 l -0.31004,0.66142 -0.3152,0.66658 q -0.46506,-0.24803 -0.91462,-0.34621 -0.44956,-0.10334 -1.08514,-0.10334 h -0.33071 v 0 2.65084 0 h 2.67151 l -0.37205,0.65625 -0.37205,0.65625 q -0.39271,-0.2377 -0.81643,-0.33588 -0.42373,-0.0982 -1.06447,-0.0982 h -0.0465 v 0 2.8007 0 q 1.09547,-0.031 1.8034,-0.16019 0.94045,-0.17052 1.66905,-0.58391 l -0.33588,0.81644 -0.34104,0.81644 v 0 h -2.79553 v 0 z"
             id="path20641" />
          <path
             d="m 382.58752,-875.11938 q -0.68726,0.35138 -1.21432,0.48573 -0.52707,0.12919 -1.24533,0.12919 -1.73623,0 -2.89371,-1.13682 -1.15231,-1.13681 -1.15231,-2.85236 0,-1.87575 1.22465,-3.11591 1.22466,-1.24016 3.0694,-1.24016 0.58391,0 1.06964,0.0879 0.49089,0.0827 1.00763,0.27903 v 1.33834 q -0.47023,-0.35138 -1.0438,-0.5374 -0.56841,-0.18602 -1.17299,-0.18602 -1.20915,0 -2.01526,0.90945 -0.80094,0.90945 -0.80094,2.27879 0,1.37451 0.75444,2.28396 0.75959,0.90945 1.89641,0.90945 0.76476,0 1.35384,-0.22219 0.59424,-0.2222 1.22466,-0.7441 z"
             id="path20643" />
          <path
             d="m 387.28463,-874.50446 q -1.71556,0 -2.85237,-1.20399 -1.13681,-1.20916 -1.13681,-3.03323 0,-1.76722 1.20915,-2.93504 1.21433,-1.17299 3.03839,-1.17299 1.72073,0 2.85754,1.20916 1.13681,1.20916 1.13681,3.03322 0,1.76206 -1.21432,2.93505 -1.20916,1.16782 -3.03839,1.16782 z m 0.25836,-0.9818 q 1.14198,0 1.89642,-0.83194 0.75959,-0.83711 0.75959,-2.09277 0,-1.48819 -0.83194,-2.46998 -0.82677,-0.98696 -2.08243,-0.98696 -1.13682,0 -1.89641,0.8371 -0.75443,0.83195 -0.75443,2.09277 0,1.48303 0.82677,2.46999 0.83194,0.98179 2.08243,0.98179 z"
             id="path20645" />
          <path
             d="m 394.24503,-880.37972 v 2.08243 q -0.005,1.42102 0.48573,2.11344 0.49089,0.69243 1.49336,0.69243 0.91978,0 1.37451,-0.55291 0.45989,-0.5529 0.45989,-1.65871 v 0 -2.67668 q 0,-0.7596 -0.062,-1.27633 -0.062,-0.51674 -0.22219,-1.06964 h 0.89394 0.89912 q -0.15502,0.54257 -0.21703,1.0593 -0.062,0.51674 -0.062,1.28667 v 3.40527 q 0,0.76477 0.062,1.2815 0.062,0.51673 0.2222,1.06447 h -0.69243 -0.69759 v 0 -0.88878 0 0 l -0.21186,0.17569 q -1.0748,0.84227 -2.28913,0.84227 -1.30733,0 -1.98942,-0.89394 -0.67692,-0.89912 -0.67692,-2.62501 v -2.36147 q 0,-0.7596 -0.062,-1.27633 -0.062,-0.51674 -0.22219,-1.06964 h 0.89395 0.89911 q -0.15502,0.54257 -0.21703,1.0593 -0.062,0.51157 -0.062,1.28667 z"
             id="path20647" />
          <path
             d="m 401.51546,-876.97445 v -3.40527 q 0,-0.7596 -0.062,-1.27633 -0.062,-0.51674 -0.22219,-1.06964 h 0.89911 v 0 h 0.60975 q 1.5502,0 2.38731,0.62525 0.83711,0.62524 0.83711,1.77756 0,1.03347 -0.93012,1.66388 -0.29454,0.19119 -0.64075,0.34104 v 0 l 0.5839,0.87845 q 0.41856,0.61491 0.92496,1.23499 0.5064,0.61492 1.37968,1.57604 h -1.44169 q -0.62525,-0.52707 -1.46236,-1.51403 -0.83194,-0.98696 -1.42101,-1.88607 l -0.21186,-0.32555 v 0 1.37968 q 0,0.76477 0.062,1.2815 0.062,0.51673 0.2222,1.06447 h -0.89395 -0.89911 q 0.15502,-0.5374 0.21702,-1.05414 0.062,-0.51673 0.062,-1.29183 z m 1.22983,-1.67938 v 0 q 0.80093,-0.0465 1.30216,-0.46506 0.57875,-0.4754 0.57875,-1.2505 0,-0.70792 -0.54774,-1.14198 -0.51157,-0.39788 -1.33317,-0.43405 v 0 z"
             id="path20649" />
          <path
             d="m 409.8452,-876.97445 v -4.87796 0 q -0.64075,0.0258 -1.10064,0.093 -0.89395,0.12918 -1.47269,0.43406 l 0.2377,-0.69759 0.2377,-0.70276 v 0 h 2.71285 v 0 h 3.1159 v 0 l -0.19119,0.66658 -0.19636,0.66659 q -0.71309,-0.2687 -1.21432,-0.38238 -0.43923,-0.093 -0.89912,-0.10852 v 0 4.90897 q 0,0.70276 0.0672,1.21949 0.0723,0.51674 0.24804,1.12648 h -0.92496 -0.93012 q 0.17569,-0.59424 0.24287,-1.11098 0.0672,-0.51673 0.0672,-1.23499 z"
             id="path20651" />
        </g>
      </g>
    </g>
  </g>
  <g
     id="g20627"
     transform="translate(-7.5110771,91.644889)">
    <path
       style="fill:#ffffff;fill-opacity:1;stroke-width:6.28586;stroke-linecap:round;stroke-linejoin:round"
       d="m 410.86799,-846.07729 a 18.860658,18.854491 0 0 1 -18.86066,18.8545 18.860658,18.854491 0 0 1 -18.86066,-18.8545 18.860658,18.854491 0 0 1 18.86066,-18.8545 18.860658,18.854491 0 0 1 18.86066,18.8545 z"
       id="path70880"
       transform="matrix(0.37795275,0,0,0.37799989,-115.06966,244.21816)" />
    <path
       style="fill:#ffffff;fill-opacity:1;stroke-width:6.28586;stroke-linecap:round;stroke-linejoin:round"
       d="m 459.50733,-818.00459 a 18.860658,18.854491 0 0 1 -18.86066,18.8545 18.860658,18.854491 0 0 1 -18.86065,-18.8545 18.860658,18.854491 0 0 1 18.86065,-18.8545 18.860658,18.854491 0 0 1 18.86066,18.8545 z"
       id="path70878"
       transform="matrix(0.37795275,0,0,0.37799989,-115.06966,244.21816)" />
    <path
       style="fill:#ffffff;fill-opacity:1;stroke-width:6.28586;stroke-linecap:round;stroke-linejoin:round"
       d="m 459.50733,-761.85899 a 18.860658,18.854491 0 0 1 -18.86066,18.8545 18.860658,18.854491 0 0 1 -18.86065,-18.8545 18.860658,18.854491 0 0 1 18.86065,-18.8545 18.860658,18.854491 0 0 1 18.86066,18.8545 z"
       id="path70876"
       transform="matrix(0.37795275,0,0,0.37799989,-115.06966,244.21816)" />
    <path
       style="fill:#ffffff;fill-opacity:1;stroke-width:6.28586;stroke-linecap:round;stroke-linejoin:round"
       d="m 410.86799,-733.78629 a 18.860658,18.854491 0 0 1 -18.86066,18.8545 18.860658,18.854491 0 0 1 -18.86066,-18.8545 18.860658,18.854491 0 0 1 18.86066,-18.8545 18.860658,18.854491 0 0 1 18.86066,18.8545 z"
       id="path70874"
       transform="matrix(0.37795275,0,0,0.37799989,-115.06966,244.21816)" />
    <path
       style="fill:#ffffff;fill-opacity:1;stroke-width:6.28586;stroke-linecap:round;stroke-linejoin:round"
       d="m 362.22864,-761.85899 a 18.860658,18.854491 0 0 1 -18.86065,18.8545 18.860658,18.854491 0 0 1 -18.86066,-18.8545 18.860658,18.854491 0 0 1 18.86066,-18.8545 18.860658,18.854491 0 0 1 18.86065,18.8545 z"
       id="path70872"
       transform="matrix(0.37795275,0,0,0.37799989,-115.06966,244.21816)" />
    <path
       style="fill:#ffffff;fill-opacity:1;stroke-width:6.28586;stroke-linecap:round;stroke-linejoin:round"
       d="m 362.22864,-818.00459 a 18.860658,18.854491 0 0 1 -18.86065,18.8545 18.860658,18.854491 0 0 1 -18.86066,-18.8545 18.860658,18.854491 0 0 1 18.86066,-18.8545 18.860658,18.854491 0 0 1 18.86065,18.8545 z"
       id="path62996-3"
       transform="matrix(0.37795275,0,0,0.37799989,-115.06966,244.21816)" />
    <g
       id="g17987"
       transform="matrix(0.44598108,0,0,0.44598108,2.125313,-46.909641)">
      <g
         transform="matrix(0.1079332,-6.5825738e-4,-0.00518458,0.1176,77.069714,-31.539565)"
         id="g2787"
         style="opacity:1;fill:#ffffff;fill-opacity:0.992157;stroke:#ffffff;stroke-width:1;stroke-linecap:round;stroke-linejoin:round;stroke-opacity:1">
        <path
           d="M -51.25,46 H 69 m -275,0 H -84.5 M -70.199952,-2.0095154 -68.5,28.5"
           id="path2781"
           style="fill:#ffffff;fill-opacity:0.992157;fill-rule:evenodd;stroke:#ffffff;stroke-width:16.875;stroke-linecap:round;stroke-linejoin:round;stroke-miterlimit:4;stroke-opacity:1" />
      </g>
      <path
         d="M 69.456453,-25.221493 V -1.9350715"
         id="path2794"
         style="opacity:1;fill:#ffffff;fill-opacity:0.992157;fill-rule:evenodd;stroke:#ffffff;stroke-width:1.83065;stroke-linecap:round;stroke-linejoin:round;stroke-miterlimit:4;stroke-dasharray:none;stroke-opacity:1" />
      <path
         d="m 71.475355,-26.228663 a 1.9454012,2.1504957 1.98656 1 1 -3.888464,-0.134875 1.9454012,2.1504957 1.98656 1 1 3.888464,0.134875 z"
         id="path1891"
         style="opacity:1;fill:#ffffff;fill-opacity:1;stroke:#ffffff;stroke-width:1.90094;stroke-linecap:round;stroke-linejoin:round;stroke-miterlimit:4;stroke-dasharray:none;stroke-dashoffset:0;stroke-opacity:1" />
      <path
         d="m 50.979701,-13.254543 4.232093,-11.8437 4.232094,11.8437"
         id="path2798"
         style="opacity:1;fill:none;fill-opacity:0.992157;fill-rule:evenodd;stroke:#ffffff;stroke-width:1.33769;stroke-linecap:round;stroke-linejoin:round;stroke-miterlimit:4;stroke-dasharray:none;stroke-opacity:1" />
      <path
         d="m 61.318866,-13.846728 a 6.1070715,6.7509093 0 1 1 -12.214143,0"
         id="path2800"
         style="opacity:1;fill:#ffffff;fill-opacity:0.992157;stroke:#ffffff;stroke-width:1.33769;stroke-linecap:round;stroke-linejoin:round;stroke-miterlimit:4;stroke-dasharray:none;stroke-dashoffset:0;stroke-opacity:0.992157" />
      <path
         d="m 79.419784,-13.334122 4.232093,-11.843701 4.232093,11.843701"
         id="path2850"
         style="opacity:1;fill:none;fill-opacity:0.992157;fill-rule:evenodd;stroke:#ffffff;stroke-width:1.33769;stroke-linecap:round;stroke-linejoin:round;stroke-miterlimit:4;stroke-dasharray:none;stroke-opacity:1" />
      <path
         d="m 89.758948,-13.926307 a 6.1070712,6.750909 0 1 1 -12.214142,0"
         id="path2852"
         style="opacity:1;fill:#ffffff;fill-opacity:0.992157;stroke:#ffffff;stroke-width:1.33769;stroke-linecap:round;stroke-linejoin:round;stroke-miterlimit:4;stroke-dasharray:none;stroke-dashoffset:0;stroke-opacity:0.992157" />
      <path
         d="M 77.988614,-1.6361305 H 60.924291"
         id="path2846"
         style="opacity:1;fill:#ffffff;fill-opacity:0.992157;fill-rule:evenodd;stroke:#ffffff;stroke-width:1.75087;stroke-linecap:round;stroke-linejoin:round;stroke-miterlimit:4;stroke-dasharray:none;stroke-opacity:1" />
    </g>
  </g>
</svg>
